<svg width="24" height="24" viewBox="0 0 24 24" fill="none" xmlns="http://www.w3.org/2000/svg">
<path d="M24 19V3.5C24 2.121 22.878 1 21.5 1H2.5C1.122 1 0 2.121 0 3.5V19H11.5V22H6V23H18V22H12.5V19H24ZM1 3.5C1 2.673 1.673 2 2.5 2H21.5C22.327 2 23 2.673 23 3.5V18H1V3.5ZM6.146 9.646C5.951 9.841 5.951 10.158 6.146 10.353L9.896 14.103L9.189 14.81L5.439 11.06C4.854 10.475 4.854 9.524 5.439 8.939L9.189 5.189L9.896 5.896L6.146 9.646ZM18.56 8.939C19.145 9.524 19.145 10.475 18.56 11.06L14.81 14.81L14.103 14.103L17.853 10.353C18.048 10.158 18.048 9.841 17.853 9.646L14.103 5.896L14.81 5.189L18.56 8.939Z" fill="white"/>
</svg>
