<svg width="24" height="24" viewBox="0 0 24 24" fill="none" xmlns="http://www.w3.org/2000/svg">
<g clip-path="url(#clip0_246_11)">
<path d="M9.49921 24C9.51921 24 9.47921 24.002 9.49921 24ZM19.0002 11C20.6542 11 22.0002 12.346 22.0002 14C22.0002 15.654 20.6542 17 19.0002 17C17.3462 17 16.0002 15.654 16.0002 14C16.0002 12.346 17.3462 11 19.0002 11ZM17.0002 14C17.0002 15.103 17.8972 16 19.0002 16C20.1032 16 21.0002 15.103 21.0002 14C21.0002 12.897 20.1032 12 19.0002 12C17.8972 12 17.0002 12.897 17.0002 14ZM2.00021 14C2.00021 12.346 3.34621 11 5.00021 11C6.65421 11 8.00021 12.346 8.00021 14C8.00021 15.654 6.65421 17 5.00021 17C3.34621 17 2.00021 15.654 2.00021 14ZM3.00021 14C3.00021 15.103 3.89721 16 5.00021 16C6.10321 16 7.00021 15.103 7.00021 14C7.00021 12.897 6.10321 12 5.00021 12C3.89721 12 3.00021 12.897 3.00021 14ZM5.00021 19C2.43821 19 0.29121 20.91 0.0032103 23.444C-0.0277897 23.718 0.16921 23.966 0.44321 23.997C0.71021 24.029 0.96521 23.832 0.99721 23.557C1.22621 21.53 2.94821 20.001 5.00021 20.001C7.05221 20.001 8.77321 21.53 9.00321 23.557C9.03221 23.812 9.24821 24 9.49921 24C9.77321 23.969 10.0282 23.719 9.99721 23.445C9.70921 20.911 7.56121 19 5.00021 19ZM23.5002 24C23.5202 24 23.4802 24.002 23.5002 24ZM23.9972 23.444C23.7092 20.91 21.5612 19 19.0002 19C16.4392 19 14.2912 20.91 14.0032 23.444C13.9722 23.718 14.1692 23.966 14.4432 23.997C14.7152 24.029 14.9642 23.832 14.9972 23.557C15.2262 21.53 16.9482 20.001 19.0002 20.001C21.0522 20.001 22.7732 21.53 23.0032 23.557C23.0322 23.812 23.2492 24 23.5002 24C23.7742 23.969 24.0282 23.718 23.9972 23.444ZM14.6942 9L12.6742 10.746C12.4842 10.915 12.2422 11 12.0012 11C11.7582 11 11.5142 10.914 11.3192 10.741L9.34221 9H8.99821C7.34421 9 5.99821 7.654 5.99821 6V3C5.99821 1.346 7.34421 0 8.99821 0H14.9982C16.6522 0 17.9982 1.346 17.9982 3V6C17.9982 7.654 16.6522 9 14.9982 9H14.6922H14.6942ZM14.5072 8H14.9992C16.1022 8 16.9992 7.103 16.9992 6V3C16.9992 1.897 16.1022 1 14.9992 1H8.99921C7.89621 1 6.99921 1.897 6.99921 3V6C6.99921 7.103 7.89621 8 8.99921 8H9.53121C9.65321 8 9.77021 8.044 9.86121 8.125L11.9812 9.993L14.1792 8.122C14.2702 8.044 14.3862 8 14.5062 8H14.5072Z" fill="white"/>
</g>
<defs>
<clipPath id="clip0_246_11">
<rect width="24" height="24" fill="white"/>
</clipPath>
</defs>
</svg>
