<svg width="32" height="33" viewBox="0 0 32 33" fill="none" xmlns="http://www.w3.org/2000/svg">
<g id="instagram 1">
<g id="Group">
<path id="Vector" d="M16 4.77233C19.738 4.77233 20.1813 4.78633 21.6572 4.854C23.1832 4.924 24.7547 5.27167 25.8665 6.3835C26.9888 7.50583 27.326 9.06217 27.396 10.5928C27.4637 12.0687 27.4777 12.512 27.4777 16.25C27.4777 19.988 27.4637 20.4313 27.396 21.9072C27.3272 23.425 26.9713 25.0117 25.8665 26.1165C24.7442 27.2388 23.189 27.576 21.6572 27.646C20.1813 27.7137 19.738 27.7277 16 27.7277C12.262 27.7277 11.8187 27.7137 10.3428 27.646C8.83667 27.5772 7.229 27.2132 6.1335 26.1165C5.017 25 4.674 23.4285 4.604 21.9072C4.53633 20.4313 4.52233 19.988 4.52233 16.25C4.52233 12.512 4.53633 12.0687 4.604 10.5928C4.67283 9.08083 5.03217 7.48483 6.1335 6.3835C7.2535 5.2635 8.81567 4.924 10.3428 4.854C11.8187 4.78633 12.262 4.77233 16 4.77233ZM16 2.25C12.1978 2.25 11.7207 2.26633 10.2273 2.334C8.06317 2.43317 5.91417 3.03517 4.34967 4.59967C2.77933 6.17 2.18317 8.31433 2.084 10.4773C2.01633 11.9707 2 12.4478 2 16.25C2 20.0522 2.01633 20.5293 2.084 22.0227C2.18317 24.1845 2.7875 26.3393 4.34967 27.9003C5.91883 29.4695 8.06667 30.0668 10.2273 30.166C11.7207 30.2337 12.1978 30.25 16 30.25C19.8022 30.25 20.2793 30.2337 21.7727 30.166C23.9357 30.0668 26.087 29.4637 27.6503 27.9003C29.2218 26.3288 29.8168 24.1857 29.916 22.0227C29.9837 20.5293 30 20.0522 30 16.25C30 12.4478 29.9837 11.9707 29.916 10.4773C29.8168 8.31317 29.2137 6.163 27.6503 4.59967C26.0835 3.03283 23.9298 2.432 21.7727 2.334C20.2793 2.26633 19.8022 2.25 16 2.25Z" fill="#434349"/>
<path id="Vector_2" d="M16 9.06104C12.0299 9.06104 8.81104 12.2799 8.81104 16.25C8.81104 20.2202 12.0299 23.439 16 23.439C19.9702 23.439 23.189 20.2202 23.189 16.25C23.189 12.2799 19.9702 9.06104 16 9.06104ZM16 20.9167C13.4229 20.9167 11.3334 18.8272 11.3334 16.25C11.3334 13.6729 13.4229 11.5834 16 11.5834C18.5772 11.5834 20.6667 13.6729 20.6667 16.25C20.6667 18.8272 18.5772 20.9167 16 20.9167Z" fill="#434349"/>
<path id="Vector_3" d="M23.4737 10.4563C24.4015 10.4563 25.1537 9.70415 25.1537 8.77631C25.1537 7.84848 24.4015 7.09631 23.4737 7.09631C22.5459 7.09631 21.7937 7.84848 21.7937 8.77631C21.7937 9.70415 22.5459 10.4563 23.4737 10.4563Z" fill="#434349"/>
</g>
</g>
</svg>
