<svg width="32" height="33" viewBox="0 0 32 33" fill="none" xmlns="http://www.w3.org/2000/svg">
<g id="linkedin 1">
<g id="Group">
<path id="Path_2520" d="M25.8579 26.1081H21.7089V19.6107C21.7089 18.0612 21.6813 16.0674 19.5509 16.0674C17.3901 16.0674 17.059 17.7548 17.059 19.4989V26.1081H12.9113V12.7462H16.8948V14.5717H16.95C17.7627 13.1836 19.2722 12.3544 20.8796 12.4137C25.0852 12.4137 25.8593 15.1802 25.8593 18.7773L25.8579 26.1081ZM8.22973 10.9194C6.89962 10.9194 5.82201 9.84177 5.82201 8.51166C5.82201 7.18155 6.89962 6.10393 8.22973 6.10393C9.55985 6.10393 10.6375 7.18155 10.6375 8.51166C10.6375 9.84177 9.55985 10.9194 8.22973 10.9194ZM10.3036 26.1081H6.1504V12.7462H10.3036V26.1081ZM27.9262 2.25157H4.06554C2.93825 2.23915 2.0138 3.14291 2 4.2702V28.2288C2.0138 29.3575 2.93825 30.2612 4.06554 30.2488H27.9262C29.0562 30.2626 29.9848 29.3588 30 28.2288V4.26882C29.9834 3.13877 29.0548 2.23501 27.9262 2.25019" fill="#434349"/>
</g>
</g>
</svg>
