<svg width="32" height="33" viewBox="0 0 32 33" fill="none" xmlns="http://www.w3.org/2000/svg">
<g id="enveloppe 1">
<path id="Vector" d="M24.1667 3.25H7.83333C6.28681 3.25185 4.80415 3.86703 3.71059 4.96059C2.61703 6.05415 2.00185 7.53681 2 9.08333L2 23.0833C2.00185 24.6299 2.61703 26.1125 3.71059 27.2061C4.80415 28.2996 6.28681 28.9148 7.83333 28.9167H24.1667C25.7132 28.9148 27.1959 28.2996 28.2894 27.2061C29.383 26.1125 29.9981 24.6299 30 23.0833V9.08333C29.9981 7.53681 29.383 6.05415 28.2894 4.96059C27.1959 3.86703 25.7132 3.25185 24.1667 3.25ZM7.83333 5.58333H24.1667C24.8652 5.58471 25.5474 5.7951 26.1254 6.18744C26.7035 6.57978 27.1508 7.1361 27.41 7.78483L18.4757 16.7203C17.8182 17.3752 16.928 17.7429 16 17.7429C15.072 17.7429 14.1818 17.3752 13.5243 16.7203L4.59 7.78483C4.84917 7.1361 5.29655 6.57978 5.87456 6.18744C6.45256 5.7951 7.13475 5.58471 7.83333 5.58333ZM24.1667 26.5833H7.83333C6.90508 26.5833 6.01484 26.2146 5.35846 25.5582C4.70208 24.9018 4.33333 24.0116 4.33333 23.0833V10.8333L11.8747 18.37C12.9697 19.4623 14.4533 20.0757 16 20.0757C17.5467 20.0757 19.0303 19.4623 20.1253 18.37L27.6667 10.8333V23.0833C27.6667 24.0116 27.2979 24.9018 26.6415 25.5582C25.9852 26.2146 25.0949 26.5833 24.1667 26.5833Z" fill="#434349"/>
</g>
</svg>
