<svg width="24" height="24" viewBox="0 0 24 24" fill="none" xmlns="http://www.w3.org/2000/svg">
<g clip-path="url(#clip0_246_4)">
<path d="M0.947949 5.53308C0.336949 4.92208 -5.12844e-05 4.10708 -5.12844e-05 3.24108C-5.12844e-05 2.37508 0.336949 1.56008 0.947949 0.949075C2.16695 -0.275925 4.30795 -0.276925 5.53295 0.949075L10.6509 6.06708C10.8459 6.26208 10.8459 6.57908 10.6509 6.77408C10.4559 6.96908 10.1389 6.96908 9.94395 6.77408L4.82595 1.65508C3.97795 0.808075 2.49895 0.810075 1.65595 1.65508C1.23295 2.07808 0.999949 2.64008 0.999949 3.24108C0.999949 3.84208 1.23195 4.40308 1.65495 4.82608L6.77295 9.94508C6.96795 10.1401 6.96795 10.4571 6.77295 10.6521C6.67495 10.7501 6.54695 10.7981 6.41895 10.7981C6.29095 10.7981 6.16295 10.7491 6.06495 10.6521L0.947949 5.53308ZM22.3879 17.8041L17.9519 13.3681C17.7569 13.1731 17.4399 13.1731 17.2449 13.3681C17.0499 13.5631 17.0499 13.8801 17.2449 14.0751L21.6809 18.5111C22.5319 19.3621 22.9989 20.4911 22.9989 21.6941V23.0011H21.6909C20.4889 23.0011 19.3589 22.5331 18.5089 21.6831L14.0729 17.2471C13.8779 17.0521 13.5609 17.0521 13.3659 17.2471C13.1709 17.4421 13.1709 17.7591 13.3659 17.9541L17.8019 22.3901C18.8399 23.4291 20.2209 24.0011 21.6909 24.0011H23.4989C23.7749 24.0011 23.9989 23.7771 23.9989 23.5011V21.6941C23.9989 20.2241 23.4269 18.8431 22.3879 17.8041ZM10.9709 17.5101C11.1169 18.9571 10.6359 20.4561 9.52995 21.5621C8.25595 22.8361 4.51995 23.7081 2.32095 23.9841C2.23295 23.9951 2.14595 24.0011 2.05895 24.0011C1.51495 24.0011 0.996949 23.7871 0.603949 23.3961C0.149949 22.9421 -0.0650513 22.3161 0.0149487 21.6791C0.289949 19.4801 1.16195 15.7441 2.43695 14.4701C3.54295 13.3641 5.04195 12.8841 6.48895 13.0291L18.5899 0.929075C19.8259 -0.306925 21.8359 -0.306925 23.0719 0.929075C24.3079 2.16508 24.3069 4.17408 23.0719 5.41008L10.9719 17.5091L10.9709 17.5101ZM7.64695 13.2851C8.33495 13.5261 8.98095 13.9201 9.52995 14.4691C10.0789 15.0181 10.4739 15.6641 10.7139 16.3521L22.3639 4.70308C23.2089 3.85708 23.2099 2.48108 22.3639 1.63608C21.5179 0.791075 20.1409 0.790075 19.2959 1.63608L7.64695 13.2851ZM8.82295 15.1761C8.03995 14.3941 7.01095 14.0021 5.98295 14.0021C4.95495 14.0021 3.92595 14.3941 3.14395 15.1761C2.11395 16.2061 1.27395 19.6711 1.00695 21.8031C0.965949 22.1311 1.07595 22.4531 1.31095 22.6881C1.54395 22.9221 1.86195 23.0361 2.19595 22.9921C4.32795 22.7251 7.79295 21.8861 8.82295 20.8551C10.3879 19.2901 10.3869 16.7431 8.82295 15.1761Z" fill="white"/>
</g>
<defs>
<clipPath id="clip0_246_4">
<rect width="24" height="24" fill="white"/>
</clipPath>
</defs>
</svg>
