<svg width="32" height="33" viewBox="0 0 32 33" fill="none" xmlns="http://www.w3.org/2000/svg">
<g id="telephone-cercle 1">
<path id="Vector" d="M16 2.25C8.28017 2.25 2 8.53017 2 16.25C2 23.9698 8.28017 30.25 16 30.25C23.7198 30.25 30 23.9698 30 16.25C30 8.53017 23.7198 2.25 16 2.25ZM22.6092 21.6015L22.0002 22.3015C21.3573 22.9455 20.5103 23.25 19.6668 23.25C15.3338 23.25 9 17.2498 9 12.5832C9 11.7397 9.3045 10.8927 9.9485 10.2498L10.6485 9.64083C11.1688 9.1205 12.0135 9.1205 12.5338 9.64083L13.7005 11.1598C14.2208 11.6802 14.2208 12.5248 13.7005 13.0452L12.7077 14.2923C13.7588 16.9103 15.5415 18.6207 17.9577 19.5423L19.2048 18.5495C19.7252 18.0292 20.5698 18.0292 21.0902 18.5495L22.6092 19.7162C23.1295 20.2365 23.1295 21.0812 22.6092 21.6015Z" fill="#434349"/>
</g>
</svg>
