<svg width="24" height="24" viewBox="0 0 24 24" fill="none" xmlns="http://www.w3.org/2000/svg">
<path d="M4.5 15H12.5C13.327 15 14 14.327 14 13.5V12.5C14 11.673 13.327 11 12.5 11H4.5C3.673 11 3 11.673 3 12.5V13.5C3 14.327 3.673 15 4.5 15ZM4 12.5C4 12.224 4.224 12 4.5 12H12.5C12.776 12 13 12.224 13 12.5V13.5C13 13.776 12.776 14 12.5 14H4.5C4.224 14 4 13.776 4 13.5V12.5ZM16.5 20H19.5C20.327 20 21 19.327 21 18.5V12.5C21 11.673 20.327 11 19.5 11H16.5C15.673 11 15 11.673 15 12.5V18.5C15 19.327 15.673 20 16.5 20ZM16 12.5C16 12.224 16.224 12 16.5 12H19.5C19.776 12 20 12.224 20 12.5V18.5C20 18.776 19.776 19 19.5 19H16.5C16.224 19 16 18.776 16 18.5V12.5ZM4.5 20H12.5C13.327 20 14 19.327 14 18.5V17.5C14 16.673 13.327 16 12.5 16H4.5C3.673 16 3 16.673 3 17.5V18.5C3 19.327 3.673 20 4.5 20ZM4 17.5C4 17.224 4.224 17 4.5 17H12.5C12.776 17 13 17.224 13 17.5V18.5C13 18.776 12.776 19 12.5 19H4.5C4.224 19 4 18.776 4 18.5V17.5ZM19.5 1H4.5C2.019 1 0 3.019 0 5.5V18.5C0 20.981 2.019 23 4.5 23H19.5C21.981 23 24 20.981 24 18.5V5.5C24 3.019 21.981 1 19.5 1ZM23 18.5C23 20.43 21.43 22 19.5 22H4.5C2.57 22 1 20.43 1 18.5V9H23V18.5ZM23 8H1V5.5C1 3.57 2.57 2 4.5 2H19.5C21.43 2 23 3.57 23 5.5V8ZM11 5C11 5.552 10.552 6 10 6C9.448 6 9 5.552 9 5C9 4.448 9.448 4 10 4C10.552 4 11 4.448 11 5ZM5 5C5 5.552 4.552 6 4 6C3.448 6 3 5.552 3 5C3 4.448 3.448 4 4 4C4.552 4 5 4.448 5 5ZM8 5C8 5.552 7.552 6 7 6C6.448 6 6 5.552 6 5C6 4.448 6.448 4 7 4C7.552 4 8 4.448 8 5Z" fill="white"/>
</svg>
