<svg width="32" height="33" viewBox="0 0 32 33" fill="none" xmlns="http://www.w3.org/2000/svg">
<g id="skill-icons:aftereffects" clip-path="url(#clip0_240_161)">
<g id="Group">
<path id="Vector" d="M24.5 0.25H7.5C3.35786 0.25 0 3.60786 0 7.75V24.75C0 28.8921 3.35786 32.25 7.5 32.25H24.5C28.6421 32.25 32 28.8921 32 24.75V7.75C32 3.60786 28.6421 0.25 24.5 0.25Z" fill="#00005B"/>
<path id="Vector_2" d="M13.1446 19.765H8.18461L7.17123 22.9116C7.14461 23.0316 7.03798 23.1116 6.91798 23.0984H4.41123C4.26461 23.0984 4.22461 23.0184 4.26461 22.8584L8.55798 10.5516C8.59798 10.4184 8.63798 10.2984 8.69123 10.1384C8.74461 9.85838 8.77123 9.565 8.77123 9.27162C8.75798 9.205 8.81123 9.13838 8.87786 9.125H12.3312C12.4246 9.125 12.4912 9.165 12.5046 9.23162L17.3712 22.8316C17.4112 22.9784 17.3712 23.045 17.238 23.045H14.4512C14.358 23.0584 14.2646 22.9916 14.238 22.8984L13.1446 19.6984V19.765ZM8.95798 17.1116H12.3446C12.2646 16.8316 12.1579 16.4984 12.0379 16.1516C11.9179 15.7916 11.7979 15.405 11.6779 15.005C11.5446 14.5916 11.4246 14.1916 11.2912 13.7784C11.1579 13.3651 11.038 12.9784 10.9312 12.5916C10.8246 12.2184 10.7312 11.8716 10.6379 11.5516H10.6112C10.4912 12.125 10.3446 12.6984 10.1579 13.2716C9.95786 13.9116 9.75786 14.5784 9.54461 15.245C9.37123 15.925 9.15786 16.5516 8.95798 17.1116ZM25.2246 18.565H20.998C21.0512 18.9784 21.1846 19.3916 21.4112 19.7516C21.6512 20.1116 21.9846 20.3916 22.3846 20.5516C22.918 20.7784 23.5046 20.8984 24.0912 20.885C24.558 20.8716 25.0246 20.8316 25.478 20.7384C25.8846 20.6852 26.2831 20.5822 26.6646 20.4316C26.7312 20.3784 26.7712 20.405 26.7712 20.5384V22.5784C26.7712 22.6316 26.758 22.685 26.7446 22.7384C26.718 22.7784 26.6912 22.805 26.6512 22.8316C26.2248 23.0189 25.7771 23.1533 25.318 23.2316C24.6943 23.3516 24.0596 23.4053 23.4246 23.3916C22.4112 23.3916 21.558 23.2316 20.8646 22.925C20.2112 22.645 19.638 22.205 19.1846 21.6584C18.7625 21.1447 18.4494 20.5503 18.2646 19.9116C18.078 19.285 17.9846 18.6316 17.9846 17.965C17.9846 17.245 18.0912 16.5384 18.318 15.845C18.5305 15.1774 18.8701 14.5571 19.318 14.0184C19.758 13.485 20.3046 13.0584 20.9312 12.7516C21.558 12.445 22.3046 12.3384 23.158 12.3384C23.8646 12.325 24.5712 12.4584 25.2246 12.7516C25.7712 12.9916 26.2512 13.3516 26.6246 13.8184C26.9712 14.2716 27.2512 14.7784 27.4246 15.3384C27.598 15.8716 27.678 16.4184 27.678 16.965C27.678 17.285 27.6646 17.565 27.6512 17.8184C27.6246 18.0716 27.6112 18.2584 27.598 18.3784C27.5846 18.4716 27.5046 18.5516 27.4112 18.5516C27.3312 18.5516 27.1846 18.565 26.9712 18.5784C26.758 18.605 26.5046 18.6184 26.198 18.6184C25.8912 18.6184 25.5712 18.565 25.2246 18.565ZM20.998 16.6184H23.8112C24.158 16.6184 24.4112 16.6184 24.5712 16.605C24.678 16.5916 24.7846 16.565 24.878 16.4984V16.365C24.8784 16.1973 24.8514 16.0306 24.798 15.8716C24.558 15.125 23.8512 14.6184 23.0646 14.645C22.7027 14.6247 22.3427 14.7096 22.0281 14.8894C21.7134 15.0693 21.4575 15.3363 21.2912 15.6584C21.1312 15.965 21.038 16.285 20.998 16.6184Z" fill="#9999FF"/>
</g>
</g>
<defs>
<clipPath id="clip0_240_161">
<rect width="32" height="32" fill="white" transform="translate(0 0.25)"/>
</clipPath>
</defs>
</svg>
