<svg width="32" height="33" viewBox="0 0 32 33" fill="none" xmlns="http://www.w3.org/2000/svg">
<g id="skill-icons:css" clip-path="url(#clip0_240_176)">
<g id="Group">
<path id="Vector" d="M24.5 0.25H7.5C3.35786 0.25 0 3.60786 0 7.75V24.75C0 28.8921 3.35786 32.25 7.5 32.25H24.5C28.6421 32.25 32 28.8921 32 24.75V7.75C32 3.60786 28.6421 0.25 24.5 0.25Z" fill="#0277BD"/>
<path id="Vector_2" d="M6.71912 13.0814L7.07688 17.0741H16.012V13.0814H6.71912ZM16.0119 5H6L6.363 8.99275H16.0119V5ZM16.0119 27.6051V23.451L15.9944 23.4556L11.5476 22.255L11.2634 19.0705H7.25525L7.81462 25.3398L15.9935 27.6103L16.0119 27.6051Z" fill="#EBEBEB"/>
<path id="Vector_3" d="M20.9148 17.0741L20.4513 22.2524L15.9982 23.4544V27.6082L24.1835 25.3398L24.2435 24.6651L25.1818 14.1536L25.2792 13.0814L26 5H15.9982V8.99275H21.6243L21.261 13.0814H15.9982V17.0741H20.9148Z" fill="white"/>
</g>
</g>
<defs>
<clipPath id="clip0_240_176">
<rect width="32" height="32" fill="white" transform="translate(0 0.25)"/>
</clipPath>
</defs>
</svg>
