<svg width="32" height="33" viewBox="0 0 32 33" fill="none" xmlns="http://www.w3.org/2000/svg">
<g id="html" clip-path="url(#clip0_240_113)">
<g id="Group">
<path id="Vector" d="M24.5 0.25H7.5C3.35786 0.25 0 3.60786 0 7.75V24.75C0 28.8921 3.35786 32.25 7.5 32.25H24.5C28.6421 32.25 32 28.8921 32 24.75V7.75C32 3.60786 28.6421 0.25 24.5 0.25Z" fill="#E14E1D"/>
<path id="Vector_2" d="M6 5L7.07625 17.0741H20.915L20.4506 22.2529L15.9949 23.4576L11.5475 22.2546L11.2501 18.9294H7.2425L7.81563 25.3395L15.994 27.611L24.1828 25.3395L25.2806 13.0819H10.728L10.3626 8.99312H25.6424L26 5H6Z" fill="white"/>
<path id="Vector_3" d="M16 5H6L7.07625 17.0741H16V13.0819H10.728L10.3626 8.99312H16V5ZM16 23.4559L15.9949 23.4576L11.5475 22.2546L11.2501 18.9294H7.2425L7.81563 25.3395L15.994 27.611L16.0001 27.6092L16 23.4559Z" fill="#EBEBEB"/>
</g>
</g>
<defs>
<clipPath id="clip0_240_113">
<rect width="32" height="32" fill="white" transform="translate(0 0.25)"/>
</clipPath>
</defs>
</svg>
