<svg width="32" height="33" viewBox="0 0 32 33" fill="none" xmlns="http://www.w3.org/2000/svg">
<g id="illustrator" clip-path="url(#clip0_240_147)">
<g id="Group">
<path id="Vector" d="M24.5 0.25H7.5C3.35786 0.25 0 3.60786 0 7.75V24.75C0 28.8921 3.35786 32.25 7.5 32.25H24.5C28.6421 32.25 32 28.8921 32 24.75V7.75C32 3.60786 28.6421 0.25 24.5 0.25Z" fill="#330000"/>
<path id="Vector_2" d="M15.4666 19.2917H10.5066L9.49325 22.425C9.46663 22.545 9.36 22.625 9.24 22.6117H6.73325C6.58663 22.6117 6.54663 22.5317 6.58663 22.3717L10.88 10.0117C10.92 9.87842 10.96 9.73167 11.0133 9.57167C11.0666 9.29167 11.0933 8.99842 11.0933 8.70504C11.08 8.63842 11.1333 8.57167 11.2 8.55842H14.6533C14.76 8.55842 14.8133 8.59842 14.8266 8.66504L19.6933 22.3984C19.7333 22.545 19.6933 22.6117 19.56 22.6117H16.7733C16.68 22.625 16.5866 22.5584 16.56 22.465L15.4666 19.2917ZM11.28 16.585H14.6666C14.5866 16.305 14.48 15.9717 14.36 15.625C14.24 15.265 14.12 14.8784 14 14.4784C13.8666 14.065 13.7466 13.665 13.6133 13.2517C13.48 12.8384 13.36 12.4517 13.2533 12.065C13.1466 11.6918 13.0533 11.345 12.96 11.025H12.9333C12.8133 11.5984 12.6666 12.1718 12.48 12.745C12.28 13.385 12.08 14.0517 11.8666 14.7184C11.6945 15.3477 11.4988 15.9704 11.28 16.585ZM22.6666 10.8917C22.2266 10.905 21.8 10.7317 21.48 10.425C21.1734 10.0917 21.0134 9.65167 21.0266 9.19842C21.0134 8.74504 21.1866 8.31842 21.5066 8.01167C21.8266 7.70492 22.2534 7.54504 22.6934 7.54504C23.2134 7.54504 23.6134 7.70504 23.9066 8.01167C24.2022 8.3349 24.36 8.76064 24.3466 9.19842C24.36 9.65167 24.2 10.0917 23.88 10.425C23.5734 10.745 23.12 10.9184 22.6666 10.8917ZM21.1734 22.465V12.1984C21.1734 12.065 21.2266 12.0117 21.3466 12.0117H23.9866C24.1066 12.0117 24.16 12.0784 24.16 12.1984V22.465C24.16 22.6117 24.1066 22.6784 23.9866 22.6784H21.3734C21.24 22.6784 21.1734 22.5984 21.1734 22.465Z" fill="#FF9A00"/>
</g>
</g>
<defs>
<clipPath id="clip0_240_147">
<rect width="32" height="32" fill="white" transform="translate(0 0.25)"/>
</clipPath>
</defs>
</svg>
