<svg width="28" height="29" viewBox="0 0 28 29" fill="none" xmlns="http://www.w3.org/2000/svg">
<g id="JS">
<rect id="Rectangle 6" x="5" y="8.25" width="21" height="18" fill="black"/>
<path id="Vector" d="M28 4.25C28 2.04375 26.2062 0.25 24 0.25H4C1.79375 0.25 0 2.04375 0 4.25V24.25C0 26.4562 1.79375 28.25 4 28.25H24C26.2062 28.25 28 26.4562 28 24.25V4.25ZM11.3062 26.0562C9.2 26.0562 7.98125 24.9688 7.35625 23.65L9.5 22.3563C9.9125 23.0875 10.2875 23.7062 11.1938 23.7062C12.0563 23.7062 12.6062 23.3687 12.6062 22.05V13.1062H15.2375V22.0875C15.2375 24.8125 13.6375 26.0562 11.3062 26.0562ZM16.6688 23.3687L18.8125 22.1313C19.375 23.05 20.1125 23.7313 21.4062 23.7313C22.4937 23.7313 23.1938 23.1875 23.1938 22.4312C23.1938 21.5312 22.4812 21.2125 21.275 20.6812L20.6187 20.4C18.7188 19.5938 17.4625 18.575 17.4625 16.4312C17.4625 14.4562 18.9688 12.9563 21.3125 12.9563C22.9875 12.9563 24.1875 13.5375 25.05 15.0625L23 16.375C22.55 15.5688 22.0625 15.25 21.3062 15.25C20.5375 15.25 20.05 15.7375 20.05 16.375C20.05 17.1625 20.5375 17.4813 21.6688 17.975L22.325 18.2563C24.5625 19.2125 25.8188 20.1937 25.8188 22.3937C25.8188 24.7562 23.9562 26.0562 21.4625 26.0562C19.0187 26.0562 17.4375 24.8937 16.6688 23.3687Z" fill="#F5DE19"/>
</g>
</svg>
