<svg width="32" height="33" viewBox="0 0 32 33" fill="none" xmlns="http://www.w3.org/2000/svg">
<g id="skill-icons:premiere" clip-path="url(#clip0_240_166)">
<g id="Group">
<path id="Vector" d="M24.5 0.25H7.5C3.35786 0.25 0 3.60786 0 7.75V24.75C0 28.8921 3.35786 32.25 7.5 32.25H24.5C28.6421 32.25 32 28.8921 32 24.75V7.75C32 3.60786 28.6421 0.25 24.5 0.25Z" fill="#00005B"/>
<path id="Vector_2" d="M6.75 23.085V9.35163C6.75 9.25838 6.79 9.205 6.88338 9.205C7.11 9.205 7.32338 9.205 7.63 9.19162C7.95 9.17837 8.28338 9.17837 8.64338 9.165C9.00338 9.15162 9.39 9.15163 9.80338 9.13838C10.2166 9.125 10.6166 9.125 11.0166 9.125C12.11 9.125 13.0166 9.25837 13.7634 9.53837C14.4327 9.76569 15.043 10.1391 15.55 10.6316C15.9795 11.0628 16.3115 11.5811 16.5234 12.1516C16.7234 12.7116 16.83 13.285 16.83 13.885C16.83 15.0317 16.5633 15.9783 16.03 16.725C15.4966 17.4716 14.75 18.0316 13.8834 18.3516C12.9766 18.685 11.9766 18.805 10.8834 18.805C10.5634 18.805 10.35 18.805 10.2166 18.7916C10.0834 18.7784 9.89663 18.7784 9.64338 18.7784V23.0584C9.65663 23.1516 9.59 23.2316 9.49662 23.245H6.91C6.80337 23.245 6.75 23.1916 6.75 23.0716V23.085ZM9.65662 11.7916V16.2716C9.84337 16.285 10.0166 16.2984 10.1766 16.2984H10.8834C11.4034 16.2984 11.9234 16.2184 12.4166 16.0584C12.8434 15.9384 13.2166 15.685 13.51 15.3516C13.79 15.0184 13.9234 14.565 13.9234 13.9784C13.9359 13.5617 13.8295 13.1501 13.6166 12.7916C13.39 12.445 13.07 12.1784 12.6834 12.0316C12.19 11.8316 11.6566 11.7516 11.11 11.765C10.7634 11.765 10.4566 11.765 10.2034 11.7784C9.93662 11.765 9.75 11.7784 9.65662 11.7916ZM18.75 12.5784H21.0834C21.2168 12.5784 21.3234 12.6716 21.3634 12.7916C21.4034 12.8984 21.43 13.005 21.4434 13.125C21.47 13.2584 21.4967 13.405 21.51 13.5384C21.5234 13.685 21.5368 13.845 21.5368 14.0184C21.9371 13.551 22.4208 13.1621 22.9634 12.8716C23.5767 12.525 24.2834 12.3516 24.99 12.3516C25.0834 12.3384 25.1634 12.405 25.1768 12.4984V15.1516C25.1768 15.2584 25.11 15.2984 24.9634 15.2984C24.4834 15.285 23.99 15.325 23.5234 15.4316C23.1367 15.5116 22.7634 15.6316 22.4034 15.7916C22.15 15.9116 21.91 16.0716 21.7234 16.285V23.085C21.7234 23.2184 21.67 23.2716 21.55 23.2716H18.9234C18.8167 23.285 18.7234 23.2184 18.71 23.1116V15.6716C18.71 15.3516 18.71 15.0184 18.6968 14.6716C18.6834 14.325 18.6834 13.9784 18.67 13.6316C18.67 13.325 18.6434 13.0316 18.6168 12.725C18.6034 12.6584 18.6434 12.5916 18.71 12.5784C18.71 12.565 18.7367 12.565 18.75 12.5784Z" fill="#9999FF"/>
</g>
</g>
<defs>
<clipPath id="clip0_240_166">
<rect width="32" height="32" fill="white" transform="translate(0 0.25)"/>
</clipPath>
</defs>
</svg>
