<svg width="32" height="33" viewBox="0 0 32 33" fill="none" xmlns="http://www.w3.org/2000/svg">
<g id="psd" clip-path="url(#clip0_240_143)">
<g id="Group">
<path id="Vector" d="M24.5 0.25H7.5C3.35786 0.25 0 3.60786 0 7.75V24.75C0 28.8921 3.35786 32.25 7.5 32.25H24.5C28.6421 32.25 32 28.8921 32 24.75V7.75C32 3.60786 28.6421 0.25 24.5 0.25Z" fill="#001E36"/>
<path id="Vector_2" d="M7.19995 22.505V8.78497C7.19995 8.6916 7.23995 8.63835 7.33333 8.63835C7.55995 8.63835 7.77333 8.63835 8.07995 8.62497C8.39995 8.6116 8.73333 8.6116 9.09333 8.59835C9.45333 8.58497 9.83995 8.58497 10.2533 8.5716C10.6666 8.55835 11.0666 8.55835 11.4666 8.55835C12.56 8.55835 13.4666 8.6916 14.2133 8.9716C14.8826 9.19895 15.4929 9.57244 16 10.065C16.4295 10.4961 16.7614 11.0145 16.9733 11.585C17.1733 12.145 17.28 12.7183 17.28 13.3183C17.28 14.465 17.0133 15.4117 16.48 16.1583C15.9466 16.905 15.2 17.465 14.3333 17.785C13.4266 18.1183 12.4266 18.2383 11.3333 18.2383C11.0133 18.2383 10.8 18.2383 10.6666 18.225C10.5332 18.2116 10.3466 18.2116 10.0933 18.2116V22.4916C10.1066 22.585 10.04 22.665 9.94658 22.6783H7.35995C7.25333 22.6783 7.19995 22.625 7.19995 22.505ZM10.1066 11.2116V15.6916C10.2933 15.705 10.4666 15.7183 10.6266 15.7183H11.3333C11.8533 15.7183 12.3733 15.6383 12.8666 15.4783C13.2933 15.3583 13.6666 15.105 13.96 14.7716C14.24 14.4383 14.3733 13.985 14.3733 13.3983C14.3858 12.9817 14.2794 12.57 14.0666 12.2116C13.84 11.865 13.52 11.5983 13.1333 11.4516C12.64 11.2516 12.1066 11.1716 11.56 11.185C11.2133 11.185 10.9066 11.185 10.6533 11.1983C10.3866 11.185 10.2 11.1983 10.1066 11.2116ZM25.6 14.8783C25.2 14.665 24.7733 14.5183 24.32 14.425C23.8266 14.3183 23.3333 14.2516 22.8266 14.2516C22.56 14.2383 22.28 14.2783 22.0266 14.345C21.8533 14.385 21.7066 14.4783 21.6133 14.6116C21.5466 14.7183 21.5066 14.8516 21.5066 14.9716C21.5066 15.0916 21.56 15.2116 21.64 15.3183C21.76 15.465 21.92 15.585 22.0933 15.6783C22.4025 15.8384 22.7183 15.9852 23.04 16.1183C23.76 16.3583 24.4533 16.6916 25.0933 17.0916C25.5333 17.3716 25.8933 17.745 26.1466 18.1983C26.36 18.625 26.4666 19.0916 26.4533 19.5716C26.4666 20.1983 26.28 20.825 25.9333 21.345C25.5614 21.8772 25.0425 22.2896 24.44 22.5316C23.7866 22.8116 22.9866 22.9584 22.0266 22.9584C21.4133 22.9584 20.8133 22.905 20.2133 22.785C19.7431 22.7038 19.2857 22.5603 18.8533 22.3583C18.76 22.305 18.6933 22.2116 18.7066 22.105V19.785C18.7066 19.745 18.72 19.6916 18.76 19.665C18.8 19.6384 18.84 19.6516 18.88 19.6783C19.4 19.985 19.9466 20.1983 20.5333 20.3316C21.04 20.465 21.5733 20.5316 22.1066 20.5316C22.6133 20.5316 22.9733 20.465 23.2133 20.345C23.4266 20.2516 23.5733 20.025 23.5733 19.785C23.5733 19.5983 23.4666 19.425 23.2533 19.2516C23.04 19.0783 22.6 18.8783 21.9466 18.625C21.2764 18.3887 20.6399 18.066 20.0533 17.665C19.6355 17.3672 19.2893 16.98 19.04 16.5316C18.8266 16.105 18.72 15.6383 18.7333 15.1716C18.7333 14.5983 18.8933 14.0516 19.1866 13.5583C19.52 13.025 20.0133 12.5983 20.5866 12.3316C21.2133 12.0116 22 11.865 22.9466 11.865C23.4933 11.865 24.0533 11.905 24.6 11.985C25 12.0383 25.3866 12.145 25.7466 12.2916C25.8 12.305 25.8533 12.3583 25.88 12.4116C25.8933 12.465 25.9066 12.5183 25.9066 12.5716V14.745C25.9066 14.7983 25.88 14.8516 25.84 14.8783C25.7199 14.905 25.6533 14.905 25.6 14.8783Z" fill="#31A8FF"/>
</g>
</g>
<defs>
<clipPath id="clip0_240_143">
<rect width="32" height="32" fill="white" transform="translate(0 0.25)"/>
</clipPath>
</defs>
</svg>
