<svg width="32" height="33" viewBox="0 0 32 33" fill="none" xmlns="http://www.w3.org/2000/svg">
<g id="react" clip-path="url(#clip0_240_121)">
<g id="Group">
<path id="Vector" d="M24.5 0.25H7.5C3.35786 0.25 0 3.60786 0 7.75V24.75C0 28.8921 3.35786 32.25 7.5 32.25H24.5C28.6421 32.25 32 28.8921 32 24.75V7.75C32 3.60786 28.6421 0.25 24.5 0.25Z" fill="#242938"/>
<path id="Vector_2" d="M16.0001 18.6188C17.2881 18.6188 18.3321 17.5747 18.3321 16.2868C18.3321 14.999 17.2881 13.9548 16.0001 13.9548C14.7121 13.9548 13.6681 14.999 13.6681 16.2868C13.6681 17.5747 14.7122 18.6188 16.0001 18.6188Z" fill="#00D8FF"/>
<path id="Vector_3" d="M16.0002 11.5454C19.1312 11.5454 22.0399 11.9947 24.233 12.7498C26.8754 13.6594 28.5 15.0383 28.5 16.2869C28.5 17.588 26.7782 19.0529 23.9406 19.993C21.7954 20.7038 18.9724 21.0748 16.0002 21.0748C12.953 21.0748 10.0674 20.7265 7.89787 19.9852C5.15312 19.047 3.5 17.5633 3.5 16.2869C3.5 15.0484 5.05125 13.6802 7.6565 12.7719C9.85775 12.0044 12.8381 11.5454 15.9998 11.5454H16.0002Z" stroke="#00D8FF" stroke-width="1.11388"/>
<path id="Vector_4" d="M11.8726 13.9297C13.4369 11.2175 15.279 8.92225 17.0287 7.39975C19.1367 5.56512 21.143 4.84662 22.2245 5.47025C23.3516 6.12025 23.7605 8.34375 23.1574 11.2715C22.7017 13.4849 21.6125 16.1156 20.1276 18.6904C18.6052 21.3301 16.8621 23.6559 15.1362 25.1644C12.9524 27.0734 10.841 27.7642 9.73537 27.1266C8.6625 26.5084 8.25225 24.4807 8.767 21.7701C9.20187 19.4797 10.2932 16.6686 11.8721 13.9297H11.8726Z" stroke="#00D8FF" stroke-width="1.11388"/>
<path id="Vector_5" d="M11.8765 18.6972C10.3078 15.9879 9.23984 13.2452 8.79409 10.9689C8.25746 8.22632 8.63684 6.12945 9.71746 5.50395C10.8436 4.85195 12.974 5.6082 15.2092 7.59295C16.8992 9.09345 18.6346 11.3506 20.1237 13.9228C21.6505 16.5601 22.7947 19.2319 23.2398 21.4804C23.8031 24.3259 23.3472 26.5001 22.2426 27.1394C21.1708 27.7599 19.2095 27.1031 17.1181 25.3033C15.3511 23.7828 13.4606 21.4334 11.8765 18.6972Z" stroke="#00D8FF" stroke-width="1.11388"/>
</g>
</g>
<defs>
<clipPath id="clip0_240_121">
<rect width="32" height="32" fill="white" transform="translate(0 0.25)"/>
</clipPath>
</defs>
</svg>
