<svg width="32" height="33" viewBox="0 0 32 33" fill="none" xmlns="http://www.w3.org/2000/svg">
<g id="tailwind" clip-path="url(#clip0_240_109)">
<g id="Group">
<path id="Vector" d="M24.5 0.25H7.5C3.35786 0.25 0 3.60786 0 7.75V24.75C0 28.8921 3.35786 32.25 7.5 32.25H24.5C28.6421 32.25 32 28.8921 32 24.75V7.75C32 3.60786 28.6421 0.25 24.5 0.25Z" fill="#242938"/>
<path id="Vector_2" fill-rule="evenodd" clip-rule="evenodd" d="M10.375 14C11.125 11 13 9.5 16 9.5C20.5 9.5 21.0625 12.875 23.3125 13.4375C24.8125 13.8127 26.125 13.2502 27.25 11.75C26.5 14.75 24.625 16.25 21.625 16.25C17.125 16.25 16.5625 12.875 14.3125 12.3125C12.8125 11.9375 11.5 12.5 10.375 14ZM4.75 20.75C5.5 17.75 7.375 16.25 10.375 16.25C14.875 16.25 15.4375 19.625 17.6875 20.1875C19.1875 20.5627 20.5 20.0002 21.625 18.5C20.875 21.5 19 23 16 23C11.5 23 10.9375 19.625 8.6875 19.0625C7.1875 18.6873 5.875 19.2498 4.75 20.75Z" fill="url(#paint0_linear_240_109)"/>
</g>
</g>
<defs>
<linearGradient id="paint0_linear_240_109" x1="10.8125" y1="9.5" x2="20.4375" y2="23.4375" gradientUnits="userSpaceOnUse">
<stop stop-color="#32B1C1"/>
<stop offset="1" stop-color="#14C6B7"/>
</linearGradient>
<clipPath id="clip0_240_109">
<rect width="32" height="32" fill="white" transform="translate(0 0.25)"/>
</clipPath>
</defs>
</svg>
