<svg width="32" height="33" viewBox="0 0 32 33" fill="none" xmlns="http://www.w3.org/2000/svg">
<g id="wordpress" clip-path="url(#clip0_240_98)">
<g id="Group">
<path id="Vector" d="M24.5 0.25H7.5C3.35786 0.25 0 3.60786 0 7.75V24.75C0 28.8921 3.35786 32.25 7.5 32.25H24.5C28.6421 32.25 32 28.8921 32 24.75V7.75C32 3.60786 28.6421 0.25 24.5 0.25Z" fill="#0073AA"/>
<path id="Vector_2" d="M5.27686 16.2492C5.27686 20.4936 7.74348 24.1616 11.3202 25.8999L6.20523 11.8854C5.59222 13.2585 5.27587 14.7455 5.27686 16.2492ZM23.2386 15.7081C23.2386 14.383 22.7626 13.4652 22.3544 12.7509C21.8107 11.8676 21.3012 11.1196 21.3012 10.2364C21.3012 9.25061 22.0489 8.33311 23.1019 8.33311C23.1495 8.33311 23.1945 8.33898 23.2409 8.34161C21.3331 6.59386 18.7915 5.52673 15.9997 5.52673C12.2537 5.52673 8.95786 7.44873 7.04061 10.36C7.29211 10.3675 7.52923 10.3729 7.73061 10.3729C8.85223 10.3729 10.5884 10.2366 10.5884 10.2366C11.1664 10.2026 11.2346 11.0516 10.6571 11.12C10.6571 11.12 10.0762 11.1884 9.42986 11.2222L13.3346 22.837L15.6812 15.7991L14.0106 11.2219C13.4332 11.188 12.8862 11.1196 12.8862 11.1196C12.3084 11.0857 12.3761 10.2022 12.954 10.2364C12.954 10.2364 14.7247 10.3724 15.7784 10.3724C16.8999 10.3724 18.6361 10.2364 18.6361 10.2364C19.2146 10.2022 19.2825 11.0512 18.7049 11.1196C18.7049 11.1196 18.1227 11.188 17.4776 11.2219L21.3527 22.7486L22.4222 19.1746C22.8859 17.6914 23.2386 16.6261 23.2386 15.7081Z" fill="white"/>
<path id="Vector_3" d="M16.188 17.1872L12.9707 26.536C13.9543 26.8257 14.9744 26.9728 15.9998 26.9729C17.2126 26.9733 18.4166 26.7677 19.5606 26.365C19.5308 26.3181 19.5053 26.2686 19.4843 26.2172L16.188 17.1872ZM25.4087 11.1047C25.4574 11.4702 25.4815 11.8385 25.481 12.2072C25.481 13.2954 25.2777 14.5186 24.6656 16.0481L21.3902 25.518C24.5781 23.659 26.7223 20.2054 26.7223 16.2495C26.7225 14.3851 26.2463 12.632 25.4087 11.1047Z" fill="white"/>
<path id="Vector_4" d="M15.9998 3.75C9.1075 3.75 3.5 9.35713 3.5 16.2493C3.5 23.1423 9.1075 28.7491 15.9998 28.7491C22.8916 28.7491 28.5 23.1423 28.5 16.2493C28.4998 9.35713 22.8916 3.75 15.9998 3.75ZM15.9998 28.1763C9.4235 28.1763 4.07312 22.8258 4.07312 16.2493C4.07312 9.67313 9.42338 4.32312 15.9998 4.32312C22.5756 4.32312 27.9256 9.67313 27.9256 16.2493C27.9256 22.8258 22.5756 28.1763 15.9998 28.1763Z" fill="white"/>
</g>
</g>
<defs>
<clipPath id="clip0_240_98">
<rect width="32" height="32" fill="white" transform="translate(0 0.25)"/>
</clipPath>
</defs>
</svg>
